<svg xmlns="http://www.w3.org/2000/svg" viewBox="0 0 4039 264">
  <defs>
    <style>
      .cls-1, .cls-2, .cls-4 {
        fill: #fff;
      }

      .cls-3, .cls-4 {
        font-size: 220px;
        font-family: DINCondensed-Bold, DIN Condensed;
        font-weight: 700;
      }

      .cls-5, .cls-6 {
        stroke: none;
      }

      .cls-6 {
        fill: #707070;
      }
    </style>
  </defs>
  <g id="Group_63" data-name="Group 63" transform="translate(3241 5800)">
    <rect id="Rectangle_437" data-name="Rectangle 437" width="4039" height="250" transform="translate(-3241 -5800)"/>
    <rect id="Rectangle_436" data-name="Rectangle 436" class="cls-1" width="180" height="180" transform="translate(-770 -5768)"/>
    <rect id="Rectangle_435" data-name="Rectangle 435" class="cls-1" width="180" height="180" transform="translate(-1140 -5768)"/>
    <g id="Path_19" data-name="Path 19" class="cls-2" transform="translate(-1615 -5778)">
      <path class="cls-5" d="M201,201h0Z"/>
      <path class="cls-6" d="M 0 201 L 201 201 L 0 201 Z"/>
    </g>
    <rect id="Rectangle_431" data-name="Rectangle 431" class="cls-1" width="180" height="180" transform="translate(-1810 -5768)"/>
    <text id="D" class="cls-3" transform="translate(-1768 -5756)"><tspan x="0" y="157">D</tspan></text>
    <text id="D-2" data-name="D" class="cls-4" transform="translate(-1597 -5756)"><tspan x="0" y="157">D</tspan></text>
    <text id="N" class="cls-4" transform="translate(-1268 -5756)"><tspan x="0" y="157">N</tspan></text>
    <text id="E" class="cls-3" transform="translate(-1086 -5756)"><tspan x="0" y="157">E</tspan></text>
    <text id="W" class="cls-4" transform="translate(-929 -5756)"><tspan x="0" y="157">W</tspan></text>
    <text id="S" class="cls-3" transform="translate(-727 -5756)"><tspan x="0" y="157">S</tspan></text>
    <rect id="Rectangle_434" data-name="Rectangle 434" class="cls-1" width="180" height="180" transform="translate(-1477 -5768)"/>
    <text id="L" class="cls-3" transform="translate(-1423 -5756)"><tspan x="0" y="157">L</tspan></text>
  </g>
</svg>
